<svg font-size="10px" font-family="sans-serif" font-style="" font-weight="" fill="none" stroke="none" stroke-width="1.5" xmlns="http://www.w3.org/2000/svg" xmlns:xlink="http://www.w3.org/1999/xlink" height="456" width="720" viewBox="0 0 720 456" version="1.1"><rect x="1" y="5" width="697" height="431" fill="rgb(255,255,255)"></rect><g transform="translate(1,5)"><rect width="697" height="431" stroke="rgb(204,204,204)"></rect></g><g transform="translate(1,5)"><path transform="translate(566,400)" pointer-events="none" stroke="none" d="M2.9,0l0,0l-2.6,0.7C0.2,0.7 0.1,0.8 0.1,1.0L0,3.9L0,3.9c0,0.0 0,0.0 0.0,0.1L1.3,4.9c0,0 0.0,0 0.0,0L4.1,4.1c0.0,0 0.1,-0.1 0.1,-0.2l0.1,-2.8c0,-0.0 0,-0.0 -0.0,-0.1C4.2,0.7 3.4,0.2 3.0,0C3.0,0 3.0,0 2.9,0z M11.2,6.2C10.9,6.2 10.9,6.5 10.9,6.7C10.6,7.6 10.4,8.4 10.1,9.4c0,0.1 0.1,0.3 0.2,0.3c0.9,0.0 1.9,0.1 3.0,0.2c0.2,0 0.2,-0.3 0.2,-0.4c0.2,-0.8 0.4,-1.7 0.7,-2.5c0,-0.1 -0.1,-0.3 -0.3,-0.3c-0.9,-0.0 -1.9,-0.1 -2.9,-0.2z M1.6,8.4c-0.3,0.1 -0.7,0.3 -1.2,0.6c-0.1,0.0 -0.1,0.1 -0.2,0.2c-0.0,0.1 -0.2,0.3 -0.0,0.3c0.7,0.6 1.6,1.3 2.4,2.0c0.0,0.0 0.2,0.1 0.3,0.0c0.3,-0.1 0.7,-0.3 1.1,-0.5c0.0,-0.1 0.2,-0.3 0.3,-0.4c0,-0.1 -0.1,-0.1 -0.1,-0.2c-0.7,-0.6 -1.5,-1.3 -2.3,-1.9c-0.0,0 -0.1,-0.0 -0.1,-0.0z M7.5,4.7c-0.1,0 -0.2,0.1 -0.4,0.1c-0.6,0.3 -1.3,0.7 -2.0,1.2c-0.1,0.1 -0.1,0.3 -0.2,0.4c-0.0,0.1 -0.1,0.2 -0.0,0.4c0.6,0.7 1.3,1.6 2.0,2.4c0.1,0.1 0.2,0 0.3,-0.0c0.7,-0.4 1.4,-0.8 2.2,-1.3c0.1,-0.1 0.2,-0.3 0.3,-0.5c0.0,-0.1 0.0,-0.3 0,-0.4c-0.6,-0.7 -1.3,-1.5 -1.9,-2.3c-0.0,-0.0 -0.0,-0.0 -0.1,-0.0z M8.6,10.4l-2.6,0.6c0,0 0,0 0,0c-0.1,0 -0.1,0.1 -0.1,0.2c0,0 0,0 0,0l-0.0,3.0c0,0.0 0,0.1 0.0,0.1l0.1,0.0l0,0l0,0c0,0 0.0,0 0.0,0L8.6,14.0c0.0,0 0.1,-0.1 0.1,-0.2l0.0,-3.0c0,-0.0 0,-0.1 -0.0,-0.1c0,0 -0.1,-0.0 -0.1,-0.0c0,0 -0.0,0 -0.0,0z M0.3,16.3L3.9,16.3L3.9,19.9L0.3,19.9L0.3,16.3z M5.4,16.3L9,16.3L9,19.9L5.4,19.9L5.4,16.3z M10.4,11.3L14,11.3L14,14.9L10.4,14.9L10.4,11.3z M10.4,16.3L14,16.3L14,19.9L10.4,19.9L10.4,16.3z M15.5,6.2L19.1,6.2L19.1,9.8L15.5,9.8L15.5,6.2z M15.5,11.3L19.1,11.3L19.1,14.9L15.5,14.9L15.5,11.3z M15.5,16.3L19.1,16.3L19.1,19.9L15.5,19.9L15.5,16.3z M27.9,20.4h-3.8l-0.3,-0.2v-13.1l0.3,-0.2h3.9c4.4,0,6.1,2.9,6.1,6.6C34.1,17.3,32.3,20.4,27.9,20.4M27.9,8.2h-2.1v10.4h2.0c2.5,0,4.1,-1.9,4.1,-5.3C32.0,10.2,30.7,8.2,27.9,8.2 M44.1,20.4l-1.2,0.2l-0.3,-0.1c-0.1,-0.4,-0.3,-1.2,-0.5,-1.9c-0.4,0.6,-2.2,1.9,-3.7,1.9c-1.0,0,-2.1,-1.2,-2.1,-2.9c0,-2.0,1.0,-2.7,3.8,-2.7h2.0v-1.6c0,-1.3,-0.4,-1.7,-1.6,-1.7c-1.3,0,-2.4,0.1,-3.0,0.3l-0.2,-0.2v-1.0l0.2,-0.2c0.7,-0.1,1.8,-0.3,3.3,-0.3c2.2,0,3.3,0.8,3.3,3.0v4.9c0.1,0.8,0.3,1.5,0.6,2.1L44.1,20.4M41.8,16.2h-2.1c-1.3,0,-1.6,0.3,-1.6,1.3c0,0.8,0.3,1.4,0.7,1.4c0.7,0,2.5,-0.9,3.0,-1.8V16.2 M51.6,20.1c-0.5,0.2,-1.3,0.4,-2.0,0.4c-1.8,0,-2.4,-0.5,-2.4,-2.8v-6.1h-1.0l-0.2,-0.2v-0.9l0.2,-0.2h1.0l0.1,-1.2l0.1,-0.2l1.1,-0.4l0.3,0.1v1.8h1.9l0.2,0.2v0.9l-0.2,0.2h-1.9v6.0c0,0.9,0.0,1.2,0.7,1.2c0.5,0,1.0,-0.1,1.7,-0.4l0.3,0.2v1.0L51.6,20.1 M61.2,20.4l-1.2,0.2l-0.3,-0.1c-0.1,-0.4,-0.4,-1.2,-0.5,-1.9c-0.4,0.6,-2.2,1.9,-3.7,1.9c-1.0,0,-2.1,-1.2,-2.1,-2.9c0,-2.0,1.0,-2.7,3.8,-2.7h2.0v-1.6c0,-1.3,-0.4,-1.7,-1.6,-1.7c-1.3,0,-2.4,0.1,-3.0,0.3l-0.2,-0.2v-1.0l0.2,-0.2c0.7,-0.1,1.8,-0.3,3.3,-0.3c2.2,0,3.3,0.8,3.3,3.0v4.9c0.1,0.8,0.3,1.5,0.6,2.1L61.2,20.4M58.9,16.2h-2.1c-1.3,0,-1.6,0.3,-1.6,1.3c0,0.8,0.3,1.4,0.7,1.4c0.7,0,2.5,-0.9,3.0,-1.8V16.2 M74.3,6.6L76.2,6.6L76.5,6.9L76.5,20.1L76.2,20.4L74.8,20.4L74.5,20.1L74.5,11.3L74.7,9.6L71.5,17.3L71.2,17.6L69.3,17.6L69.0,17.3L66.0,9.6L66.2,11.3L66.2,20.1L65.9,20.4L64.5,20.4L64.2,20.1L64.2,6.9L64.5,6.6L66.4,6.6L66.7,6.9L69.9,14.4L70.3,16.0L70.8,14.4L74.0,6.9 M87.3,20.4l-1.2,0.2l-0.3,-0.1c-0.1,-0.4,-0.4,-1.2,-0.5,-1.9c-0.4,0.6,-2.2,1.9,-3.7,1.9c-1.0,0,-2.1,-1.2,-2.1,-2.9c0,-2.0,1.1,-2.7,3.8,-2.7h2.0v-1.6c0,-1.3,-0.4,-1.7,-1.6,-1.7c-1.3,0,-2.4,0.1,-3.0,0.3l-0.2,-0.2v-1.0l0.2,-0.2c0.7,-0.1,1.9,-0.3,3.3,-0.3c2.2,0,3.3,0.8,3.3,3.0v4.9c0.1,0.8,0.3,1.5,0.6,2.1L87.3,20.4M84.9,16.2h-2.1c-1.3,0,-1.6,0.3,-1.6,1.3c0,0.8,0.3,1.4,0.7,1.4c0.7,0,2.5,-0.9,3.0,-1.8V16.2 M91.9,11.7c0.3,-0.7,0.9,-1.8,2.3,-1.8c0.3,0,1.0,0.2,1.4,0.3l0.1,0.3l-0.7,1.6l-0.3,0.0c-0.1,-0.1,-0.6,-0.7,-0.9,-0.7c-0.7,0,-1.4,1.3,-1.8,2.2v6.3l-0.2,0.2h-1.3l-0.2,-0.2v-7.5c-0.1,-0.8,-0.3,-1.4,-0.5,-2.1l0.1,-0.3l1.2,-0.2l0.3,0.1c0.2,0.6,0.4,1.3,0.5,1.9L91.9,11.7 M99.2,20.4h-1.3l-0.3,-0.2v-13.2l0.3,-0.2h1.3l0.2,0.2v13.2L99.2,20.4M101.8,14.8l3.6,4.8l-0.0,0.3l-1.3,0.4l-0.3,-0.1l-3.9,-5.4v-0.4l4.0,-4.5l0.4,-0.0l0.9,0.6l0.0,0.4L101.8,14.8 M114.7,14.8l-0.2,0.2h-5.7v0.3c0,2.4,0.7,3.5,2.4,3.5c0.9,0,2.1,-0.1,3.1,-0.5l0.2,0.1v1.0l-0.2,0.3c-0.9,0.3,-1.9,0.5,-3.3,0.5c-2.4,0,-4.2,-1.4,-4.2,-5.0c0,-2.8,1.0,-5.6,4.3,-5.6c2.1,0,3.7,1.3,3.7,3.5C114.8,13.9,114.8,14.4,114.7,14.8M113.0,13.4c0,-1.2,-0.7,-2.0,-1.9,-2.0c-1.5,0,-2.1,1.0,-2.2,2.2h4.2V13.4 M122.0,20.1c-0.5,0.2,-1.3,0.4,-2.0,0.4c-1.8,0,-2.4,-0.5,-2.4,-2.8v-6.1h-1.0l-0.2,-0.2v-0.9l0.2,-0.2h1.0l0.1,-1.2l0.1,-0.2l1.1,-0.4l0.3,0.1v1.8h1.9l0.2,0.2v0.9l-0.2,0.2h-1.9v6.0c0,0.9,0.0,1.2,0.7,1.2c0.5,0,1.0,-0.1,1.7,-0.4l0.3,0.2v1.0L122.0,20.1" fill="rgb(0,0,0)" fill-opacity="0.1"></path></g><g transform="translate(1,5)"></g><g transform="translate(1,5)"><line shape-rendering="crispEdges" cursor="auto" x1="0" y1="436" x2="0" y2="431" stroke="rgb(204,204,204)" stroke-width="1"></line><line shape-rendering="crispEdges" cursor="auto" x1="58.45703125000001" y1="436" x2="58.45703125000001" y2="431" stroke="rgb(204,204,204)" stroke-width="1"></line><line shape-rendering="crispEdges" cursor="auto" x1="116.91406250000001" y1="436" x2="116.91406250000001" y2="431" stroke="rgb(204,204,204)" stroke-width="1"></line><line shape-rendering="crispEdges" cursor="auto" x1="175.37109375" y1="436" x2="175.37109375" y2="431" stroke="rgb(204,204,204)" stroke-width="1"></line><line shape-rendering="crispEdges" cursor="auto" x1="233.98828125" y1="436" x2="233.98828125" y2="431" stroke="rgb(204,204,204)" stroke-width="1"></line><line shape-rendering="crispEdges" cursor="auto" x1="292.4453125" y1="436" x2="292.4453125" y2="431" stroke="rgb(204,204,204)" stroke-width="1"></line><line shape-rendering="crispEdges" cursor="auto" x1="350.90234375" y1="436" x2="350.90234375" y2="431" stroke="rgb(204,204,204)" stroke-width="1"></line><line shape-rendering="crispEdges" cursor="auto" x1="409.359375" y1="436" x2="409.359375" y2="431" stroke="rgb(204,204,204)" stroke-width="1"></line><line shape-rendering="crispEdges" cursor="auto" x1="467.9765625" y1="436" x2="467.9765625" y2="431" stroke="rgb(204,204,204)" stroke-width="1"></line><line shape-rendering="crispEdges" cursor="auto" x1="526.43359375" y1="436" x2="526.43359375" y2="431" stroke="rgb(204,204,204)" stroke-width="1"></line><line shape-rendering="crispEdges" cursor="auto" x1="584.890625" y1="436" x2="584.890625" y2="431" stroke="rgb(204,204,204)" stroke-width="1"></line><line shape-rendering="crispEdges" cursor="auto" x1="643.34765625" y1="436" x2="643.34765625" y2="431" stroke="rgb(204,204,204)" stroke-width="1"></line></g><g transform="translate(1,5)"><text pointer-events="all" y="-3" fill="rgb(0,0,0)" stroke-width="0.5" text-anchor="middle" transform="translate(0,441)" style="font-size: 10px; font-family: sans-serif"><tspan x="0" dy="10">1949</tspan></text><text pointer-events="all" y="-3" fill="rgb(0,0,0)" stroke-width="0.5" text-anchor="middle" transform="translate(58.45703125000001,441)" style="font-size: 10px; font-family: sans-serif"><tspan x="0" dy="10">1950</tspan></text><text pointer-events="all" y="-3" fill="rgb(0,0,0)" stroke-width="0.5" text-anchor="middle" transform="translate(116.91406250000001,441)" style="font-size: 10px; font-family: sans-serif"><tspan x="0" dy="10">1951</tspan></text><text pointer-events="all" y="-3" fill="rgb(0,0,0)" stroke-width="0.5" text-anchor="middle" transform="translate(175.37109375,441)" style="font-size: 10px; font-family: sans-serif"><tspan x="0" dy="10">1952</tspan></text><text pointer-events="all" y="-3" fill="rgb(0,0,0)" stroke-width="0.5" text-anchor="middle" transform="translate(233.98828125,441)" style="font-size: 10px; font-family: sans-serif"><tspan x="0" dy="10">1953</tspan></text><text pointer-events="all" y="-3" fill="rgb(0,0,0)" stroke-width="0.5" text-anchor="middle" transform="translate(292.4453125,441)" style="font-size: 10px; font-family: sans-serif"><tspan x="0" dy="10">1954</tspan></text><text pointer-events="all" y="-3" fill="rgb(0,0,0)" stroke-width="0.5" text-anchor="middle" transform="translate(350.90234375,441)" style="font-size: 10px; font-family: sans-serif"><tspan x="0" dy="10">1955</tspan></text><text pointer-events="all" y="-3" fill="rgb(0,0,0)" stroke-width="0.5" text-anchor="middle" transform="translate(409.359375,441)" style="font-size: 10px; font-family: sans-serif"><tspan x="0" dy="10">1956</tspan></text><text pointer-events="all" y="-3" fill="rgb(0,0,0)" stroke-width="0.5" text-anchor="middle" transform="translate(467.9765625,441)" style="font-size: 10px; font-family: sans-serif"><tspan x="0" dy="10">1957</tspan></text><text pointer-events="all" y="-3" fill="rgb(0,0,0)" stroke-width="0.5" text-anchor="middle" transform="translate(526.43359375,441)" style="font-size: 10px; font-family: sans-serif"><tspan x="0" dy="10">1958</tspan></text><text pointer-events="all" y="-3" fill="rgb(0,0,0)" stroke-width="0.5" text-anchor="middle" transform="translate(584.890625,441)" style="font-size: 10px; font-family: sans-serif"><tspan x="0" dy="10">1959</tspan></text><text pointer-events="all" y="-3" fill="rgb(0,0,0)" stroke-width="0.5" text-anchor="middle" transform="translate(643.34765625,441)" style="font-size: 10px; font-family: sans-serif"><tspan x="0" dy="10">1960</tspan></text></g><g transform="translate(1,5)"><line shape-rendering="crispEdges" cursor="auto" x1="0" y1="431" x2="697" y2="431" stroke-width="1" stroke="rgb(0,0,0)" stroke-opacity="0.2"></line><line shape-rendering="crispEdges" cursor="auto" x1="0" y1="377.125" x2="697" y2="377.125" stroke-width="1" stroke="rgb(0,0,0)" stroke-opacity="0.07"></line><line shape-rendering="crispEdges" cursor="auto" x1="0" y1="323.25" x2="697" y2="323.25" stroke-width="1" stroke="rgb(0,0,0)" stroke-opacity="0.07"></line><line shape-rendering="crispEdges" cursor="auto" x1="0" y1="269.375" x2="697" y2="269.375" stroke-width="1" stroke="rgb(0,0,0)" stroke-opacity="0.07"></line><line shape-rendering="crispEdges" cursor="auto" x1="0" y1="215.5" x2="697" y2="215.5" stroke-width="1" stroke="rgb(0,0,0)" stroke-opacity="0.07"></line><line shape-rendering="crispEdges" cursor="auto" x1="0" y1="161.625" x2="697" y2="161.625" stroke-width="1" stroke="rgb(0,0,0)" stroke-opacity="0.07"></line><line shape-rendering="crispEdges" cursor="auto" x1="0" y1="107.75" x2="697" y2="107.75" stroke-width="1" stroke="rgb(0,0,0)" stroke-opacity="0.07"></line><line shape-rendering="crispEdges" cursor="auto" x1="0" y1="53.875" x2="697" y2="53.875" stroke-width="1" stroke="rgb(0,0,0)" stroke-opacity="0.07"></line><line shape-rendering="crispEdges" cursor="auto" x1="0" y1="0" x2="697" y2="0" stroke-width="1" stroke="rgb(0,0,0)" stroke-opacity="0.07"></line></g><g transform="translate(1,5)"></g><g transform="translate(1,5)"><text pointer-events="all" y="-6.5" fill="rgb(0,0,0)" stroke-width="0.5" transform="translate(702,431)" style="font-size: 10px; font-family: sans-serif"><tspan x="0" dy="10">0</tspan></text><text pointer-events="all" y="-6.5" fill="rgb(0,0,0)" stroke-width="0.5" transform="translate(702,377.125)" style="font-size: 10px; font-family: sans-serif"><tspan x="0" dy="10">100</tspan></text><text pointer-events="all" y="-6.5" fill="rgb(0,0,0)" stroke-width="0.5" transform="translate(702,323.25)" style="font-size: 10px; font-family: sans-serif"><tspan x="0" dy="10">200</tspan></text><text pointer-events="all" y="-6.5" fill="rgb(0,0,0)" stroke-width="0.5" transform="translate(702,269.375)" style="font-size: 10px; font-family: sans-serif"><tspan x="0" dy="10">300</tspan></text><text pointer-events="all" y="-6.5" fill="rgb(0,0,0)" stroke-width="0.5" transform="translate(702,215.5)" style="font-size: 10px; font-family: sans-serif"><tspan x="0" dy="10">400</tspan></text><text pointer-events="all" y="-6.5" fill="rgb(0,0,0)" stroke-width="0.5" transform="translate(702,161.625)" style="font-size: 10px; font-family: sans-serif"><tspan x="0" dy="10">500</tspan></text><text pointer-events="all" y="-6.5" fill="rgb(0,0,0)" stroke-width="0.5" transform="translate(702,107.75)" style="font-size: 10px; font-family: sans-serif"><tspan x="0" dy="10">600</tspan></text><text pointer-events="all" y="-6.5" fill="rgb(0,0,0)" stroke-width="0.5" transform="translate(702,53.875)" style="font-size: 10px; font-family: sans-serif"><tspan x="0" dy="10">700</tspan></text><text pointer-events="all" y="-6.5" fill="rgb(0,0,0)" stroke-width="0.5" transform="translate(702,0)" style="font-size: 10px; font-family: sans-serif"><tspan x="0" dy="10">800</tspan></text></g><g transform="translate(1,5)"><g><g><path stroke="rgb(30,115,181)" stroke-width="1.6" d="M0,370.659L0,370.659L4.964,367.427L9.449,359.885L14.414,361.501L19.218,365.811L24.183,358.268L28.988,351.265L33.953,351.265L38.917,357.73L43.722,366.888L48.687,374.97L53.492,367.427L58.457,369.043L63.421,363.117L67.906,355.036L72.871,358.268L77.675,363.656L82.640,350.726L87.445,339.412L92.410,339.412L97.375,345.877L102.179,359.346L107.144,369.582L111.949,355.575L116.914,352.881L121.878,350.187L126.363,335.102L131.328,343.183L136.132,338.335L141.097,335.102L145.902,323.788L150.867,323.788L155.832,331.87L160.636,343.722L165.601,352.342L170.406,341.567L175.371,338.873L180.335,334.025L184.980,327.021L189.945,333.486L194.75,332.408L199.714,313.552L204.519,307.087L209.484,300.622L214.449,318.401L219.253,328.098L224.218,338.335L229.023,326.482L233.988,325.405L238.953,325.405L243.437,303.855L248.402,304.393L253.207,307.626L258.171,300.083L262.976,288.77L267.941,284.46L272.906,303.316L277.710,317.323L282.675,334.025L287.480,322.711L292.445,321.095L297.410,329.715L301.894,304.393L306.859,308.703L311.664,304.932L316.628,288.77L321.433,268.297L326.398,273.146L331.363,291.463L336.167,307.626L341.132,321.633L345.937,307.626L350.902,300.622L355.867,305.471L360.351,287.153L365.316,286.076L370.121,285.537L375.085,261.293L379.890,234.894L384.855,244.053L389.820,262.909L394.625,283.382L399.589,303.316L404.394,281.227L409.359,277.995L414.324,281.766L418.968,260.216L423.933,262.371L428.738,259.677L433.703,229.507L438.507,208.496L443.472,212.806L448.437,239.743L453.242,266.142L458.207,284.998L463.011,266.142L467.976,261.293L472.941,268.836L477.425,239.204L482.390,243.515L487.195,239.743L492.160,203.647L496.964,180.481L501.929,179.403L506.894,213.345L511.699,244.053L516.664,266.681L521.468,249.980L526.433,247.825L531.398,259.677L535.882,235.972L540.847,243.515L545.652,235.433L550.617,196.643L555.421,166.473L560.386,158.931L565.351,213.345L570.156,237.588L575.121,263.987L579.925,249.441L584.890,237.049L589.855,246.747L594.339,212.267L599.304,217.655L604.109,204.725L609.074,176.71L613.878,135.765L618.843,129.838L623.808,181.558L628.613,211.728L633.578,235.972L638.382,212.806L643.347,206.341L648.312,220.348L652.957,205.263L657.921,182.636L662.726,176.71L667.691,142.768L672.496,95.897L677.460,104.517L682.425,157.315L687.230,182.636L692.195,220.887L697,198.26"></path></g><g><circle fill="rgb(30,115,181)" stroke="rgb(255,255,255)" cx="0" cy="370.65999999999997" r="2.5"></circle><circle fill="rgb(30,115,181)" stroke="rgb(255,255,255)" cx="4.96484375" cy="367.4275" r="2.5"></circle><circle fill="rgb(30,115,181)" stroke="rgb(255,255,255)" cx="9.44921875" cy="359.885" r="2.5"></circle><circle fill="rgb(30,115,181)" stroke="rgb(255,255,255)" cx="14.4140625" cy="361.50125" r="2.5"></circle><circle fill="rgb(30,115,181)" stroke="rgb(255,255,255)" cx="19.21875" cy="365.81125" r="2.5"></circle><circle fill="rgb(30,115,181)" stroke="rgb(255,255,255)" cx="24.18359375" cy="358.26875" r="2.5"></circle><circle fill="rgb(30,115,181)" stroke="rgb(255,255,255)" cx="28.98828125" cy="351.265" r="2.5"></circle><circle fill="rgb(30,115,181)" stroke="rgb(255,255,255)" cx="33.953125" cy="351.265" r="2.5"></circle><circle fill="rgb(30,115,181)" stroke="rgb(255,255,255)" cx="38.91796875" cy="357.73" r="2.5"></circle><circle fill="rgb(30,115,181)" stroke="rgb(255,255,255)" cx="43.72265625" cy="366.88875" r="2.5"></circle><circle fill="rgb(30,115,181)" stroke="rgb(255,255,255)" cx="48.6875" cy="374.97" r="2.5"></circle><circle fill="rgb(30,115,181)" stroke="rgb(255,255,255)" cx="53.4921875" cy="367.4275" r="2.5"></circle><circle fill="rgb(30,115,181)" stroke="rgb(255,255,255)" cx="58.45703125000001" cy="369.04375" r="2.5"></circle><circle fill="rgb(30,115,181)" stroke="rgb(255,255,255)" cx="63.421875" cy="363.1175" r="2.5"></circle><circle fill="rgb(30,115,181)" stroke="rgb(255,255,255)" cx="67.90625" cy="355.03625" r="2.5"></circle><circle fill="rgb(30,115,181)" stroke="rgb(255,255,255)" cx="72.87109375" cy="358.26875" r="2.5"></circle><circle fill="rgb(30,115,181)" stroke="rgb(255,255,255)" cx="77.67578125" cy="363.65625" r="2.5"></circle><circle fill="rgb(30,115,181)" stroke="rgb(255,255,255)" cx="82.640625" cy="350.72625" r="2.5"></circle><circle fill="rgb(30,115,181)" stroke="rgb(255,255,255)" cx="87.4453125" cy="339.4125" r="2.5"></circle><circle fill="rgb(30,115,181)" stroke="rgb(255,255,255)" cx="92.41015625000001" cy="339.4125" r="2.5"></circle><circle fill="rgb(30,115,181)" stroke="rgb(255,255,255)" cx="97.375" cy="345.8775" r="2.5"></circle><circle fill="rgb(30,115,181)" stroke="rgb(255,255,255)" cx="102.1796875" cy="359.34625" r="2.5"></circle><circle fill="rgb(30,115,181)" stroke="rgb(255,255,255)" cx="107.14453125" cy="369.5825" r="2.5"></circle><circle fill="rgb(30,115,181)" stroke="rgb(255,255,255)" cx="111.94921875" cy="355.575" r="2.5"></circle><circle fill="rgb(30,115,181)" stroke="rgb(255,255,255)" cx="116.91406250000001" cy="352.88125" r="2.5"></circle><circle fill="rgb(30,115,181)" stroke="rgb(255,255,255)" cx="121.87890625" cy="350.1875" r="2.5"></circle><circle fill="rgb(30,115,181)" stroke="rgb(255,255,255)" cx="126.36328125" cy="335.10249999999996" r="2.5"></circle><circle fill="rgb(30,115,181)" stroke="rgb(255,255,255)" cx="131.328125" cy="343.18375" r="2.5"></circle><circle fill="rgb(30,115,181)" stroke="rgb(255,255,255)" cx="136.1328125" cy="338.33500000000004" r="2.5"></circle><circle fill="rgb(30,115,181)" stroke="rgb(255,255,255)" cx="141.09765625" cy="335.10249999999996" r="2.5"></circle><circle fill="rgb(30,115,181)" stroke="rgb(255,255,255)" cx="145.90234375" cy="323.78875" r="2.5"></circle><circle fill="rgb(30,115,181)" stroke="rgb(255,255,255)" cx="150.8671875" cy="323.78875" r="2.5"></circle><circle fill="rgb(30,115,181)" stroke="rgb(255,255,255)" cx="155.83203125" cy="331.87" r="2.5"></circle><circle fill="rgb(30,115,181)" stroke="rgb(255,255,255)" cx="160.63671875" cy="343.72249999999997" r="2.5"></circle><circle fill="rgb(30,115,181)" stroke="rgb(255,255,255)" cx="165.6015625" cy="352.3425" r="2.5"></circle><circle fill="rgb(30,115,181)" stroke="rgb(255,255,255)" cx="170.40625" cy="341.5675" r="2.5"></circle><circle fill="rgb(30,115,181)" stroke="rgb(255,255,255)" cx="175.37109375" cy="338.87375" r="2.5"></circle><circle fill="rgb(30,115,181)" stroke="rgb(255,255,255)" cx="180.3359375" cy="334.025" r="2.5"></circle><circle fill="rgb(30,115,181)" stroke="rgb(255,255,255)" cx="184.98046875" cy="327.02125" r="2.5"></circle><circle fill="rgb(30,115,181)" stroke="rgb(255,255,255)" cx="189.9453125" cy="333.48625" r="2.5"></circle><circle fill="rgb(30,115,181)" stroke="rgb(255,255,255)" cx="194.75" cy="332.40875" r="2.5"></circle><circle fill="rgb(30,115,181)" stroke="rgb(255,255,255)" cx="199.71484375000003" cy="313.5525" r="2.5"></circle><circle fill="rgb(30,115,181)" stroke="rgb(255,255,255)" cx="204.51953125000003" cy="307.0875" r="2.5"></circle><circle fill="rgb(30,115,181)" stroke="rgb(255,255,255)" cx="209.484375" cy="300.6225" r="2.5"></circle><circle fill="rgb(30,115,181)" stroke="rgb(255,255,255)" cx="214.44921875" cy="318.40125" r="2.5"></circle><circle fill="rgb(30,115,181)" stroke="rgb(255,255,255)" cx="219.25390625" cy="328.09875" r="2.5"></circle><circle fill="rgb(30,115,181)" stroke="rgb(255,255,255)" cx="224.21875000000003" cy="338.33500000000004" r="2.5"></circle><circle fill="rgb(30,115,181)" stroke="rgb(255,255,255)" cx="229.02343750000003" cy="326.4825" r="2.5"></circle><circle fill="rgb(30,115,181)" stroke="rgb(255,255,255)" cx="233.98828125" cy="325.405" r="2.5"></circle><circle fill="rgb(30,115,181)" stroke="rgb(255,255,255)" cx="238.953125" cy="325.405" r="2.5"></circle><circle fill="rgb(30,115,181)" stroke="rgb(255,255,255)" cx="243.4375" cy="303.855" r="2.5"></circle><circle fill="rgb(30,115,181)" stroke="rgb(255,255,255)" cx="248.40234375" cy="304.39375" r="2.5"></circle><circle fill="rgb(30,115,181)" stroke="rgb(255,255,255)" cx="253.20703125" cy="307.62625" r="2.5"></circle><circle fill="rgb(30,115,181)" stroke="rgb(255,255,255)" cx="258.171875" cy="300.08375" r="2.5"></circle><circle fill="rgb(30,115,181)" stroke="rgb(255,255,255)" cx="262.9765625" cy="288.77" r="2.5"></circle><circle fill="rgb(30,115,181)" stroke="rgb(255,255,255)" cx="267.94140625" cy="284.46" r="2.5"></circle><circle fill="rgb(30,115,181)" stroke="rgb(255,255,255)" cx="272.90625" cy="303.31624999999997" r="2.5"></circle><circle fill="rgb(30,115,181)" stroke="rgb(255,255,255)" cx="277.7109375" cy="317.32375" r="2.5"></circle><circle fill="rgb(30,115,181)" stroke="rgb(255,255,255)" cx="282.67578125" cy="334.025" r="2.5"></circle><circle fill="rgb(30,115,181)" stroke="rgb(255,255,255)" cx="287.48046875" cy="322.71125" r="2.5"></circle><circle fill="rgb(30,115,181)" stroke="rgb(255,255,255)" cx="292.4453125" cy="321.095" r="2.5"></circle><circle fill="rgb(30,115,181)" stroke="rgb(255,255,255)" cx="297.41015625" cy="329.715" r="2.5"></circle><circle fill="rgb(30,115,181)" stroke="rgb(255,255,255)" cx="301.89453125" cy="304.39375" r="2.5"></circle><circle fill="rgb(30,115,181)" stroke="rgb(255,255,255)" cx="306.859375" cy="308.70375" r="2.5"></circle><circle fill="rgb(30,115,181)" stroke="rgb(255,255,255)" cx="311.6640625" cy="304.9325" r="2.5"></circle><circle fill="rgb(30,115,181)" stroke="rgb(255,255,255)" cx="316.62890625" cy="288.77" r="2.5"></circle><circle fill="rgb(30,115,181)" stroke="rgb(255,255,255)" cx="321.43359375" cy="268.2975" r="2.5"></circle><circle fill="rgb(30,115,181)" stroke="rgb(255,255,255)" cx="326.3984375" cy="273.14625" r="2.5"></circle><circle fill="rgb(30,115,181)" stroke="rgb(255,255,255)" cx="331.36328125" cy="291.46375" r="2.5"></circle><circle fill="rgb(30,115,181)" stroke="rgb(255,255,255)" cx="336.16796875" cy="307.62625" r="2.5"></circle><circle fill="rgb(30,115,181)" stroke="rgb(255,255,255)" cx="341.1328125" cy="321.63374999999996" r="2.5"></circle><circle fill="rgb(30,115,181)" stroke="rgb(255,255,255)" cx="345.9375" cy="307.62625" r="2.5"></circle><circle fill="rgb(30,115,181)" stroke="rgb(255,255,255)" cx="350.90234375" cy="300.6225" r="2.5"></circle><circle fill="rgb(30,115,181)" stroke="rgb(255,255,255)" cx="355.86718750000006" cy="305.47125" r="2.5"></circle><circle fill="rgb(30,115,181)" stroke="rgb(255,255,255)" cx="360.3515625" cy="287.15375" r="2.5"></circle><circle fill="rgb(30,115,181)" stroke="rgb(255,255,255)" cx="365.31640625" cy="286.07625" r="2.5"></circle><circle fill="rgb(30,115,181)" stroke="rgb(255,255,255)" cx="370.12109375" cy="285.5375" r="2.5"></circle><circle fill="rgb(30,115,181)" stroke="rgb(255,255,255)" cx="375.08593750000006" cy="261.29375000000005" r="2.5"></circle><circle fill="rgb(30,115,181)" stroke="rgb(255,255,255)" cx="379.890625" cy="234.89499999999998" r="2.5"></circle><circle fill="rgb(30,115,181)" stroke="rgb(255,255,255)" cx="384.85546875" cy="244.05374999999998" r="2.5"></circle><circle fill="rgb(30,115,181)" stroke="rgb(255,255,255)" cx="389.8203125" cy="262.90999999999997" r="2.5"></circle><circle fill="rgb(30,115,181)" stroke="rgb(255,255,255)" cx="394.625" cy="283.3825" r="2.5"></circle><circle fill="rgb(30,115,181)" stroke="rgb(255,255,255)" cx="399.58984375000006" cy="303.31624999999997" r="2.5"></circle><circle fill="rgb(30,115,181)" stroke="rgb(255,255,255)" cx="404.39453125" cy="281.22749999999996" r="2.5"></circle><circle fill="rgb(30,115,181)" stroke="rgb(255,255,255)" cx="409.359375" cy="277.995" r="2.5"></circle><circle fill="rgb(30,115,181)" stroke="rgb(255,255,255)" cx="414.32421875" cy="281.76625" r="2.5"></circle><circle fill="rgb(30,115,181)" stroke="rgb(255,255,255)" cx="418.96875" cy="260.21625" r="2.5"></circle><circle fill="rgb(30,115,181)" stroke="rgb(255,255,255)" cx="423.93359375000006" cy="262.37125000000003" r="2.5"></circle><circle fill="rgb(30,115,181)" stroke="rgb(255,255,255)" cx="428.73828125" cy="259.6775" r="2.5"></circle><circle fill="rgb(30,115,181)" stroke="rgb(255,255,255)" cx="433.70312499999994" cy="229.5075" r="2.5"></circle><circle fill="rgb(30,115,181)" stroke="rgb(255,255,255)" cx="438.5078125" cy="208.49625" r="2.5"></circle><circle fill="rgb(30,115,181)" stroke="rgb(255,255,255)" cx="443.47265625" cy="212.80625" r="2.5"></circle><circle fill="rgb(30,115,181)" stroke="rgb(255,255,255)" cx="448.43750000000006" cy="239.74374999999998" r="2.5"></circle><circle fill="rgb(30,115,181)" stroke="rgb(255,255,255)" cx="453.2421875" cy="266.1425" r="2.5"></circle><circle fill="rgb(30,115,181)" stroke="rgb(255,255,255)" cx="458.20703124999994" cy="284.99875" r="2.5"></circle><circle fill="rgb(30,115,181)" stroke="rgb(255,255,255)" cx="463.01171875" cy="266.1425" r="2.5"></circle><circle fill="rgb(30,115,181)" stroke="rgb(255,255,255)" cx="467.9765625" cy="261.29375000000005" r="2.5"></circle><circle fill="rgb(30,115,181)" stroke="rgb(255,255,255)" cx="472.94140625000006" cy="268.83624999999995" r="2.5"></circle><circle fill="rgb(30,115,181)" stroke="rgb(255,255,255)" cx="477.42578125" cy="239.20499999999998" r="2.5"></circle><circle fill="rgb(30,115,181)" stroke="rgb(255,255,255)" cx="482.390625" cy="243.51500000000001" r="2.5"></circle><circle fill="rgb(30,115,181)" stroke="rgb(255,255,255)" cx="487.1953125" cy="239.74374999999998" r="2.5"></circle><circle fill="rgb(30,115,181)" stroke="rgb(255,255,255)" cx="492.16015625000006" cy="203.6475" r="2.5"></circle><circle fill="rgb(30,115,181)" stroke="rgb(255,255,255)" cx="496.96484375" cy="180.48125" r="2.5"></circle><circle fill="rgb(30,115,181)" stroke="rgb(255,255,255)" cx="501.9296875" cy="179.40375" r="2.5"></circle><circle fill="rgb(30,115,181)" stroke="rgb(255,255,255)" cx="506.89453125" cy="213.345" r="2.5"></circle><circle fill="rgb(30,115,181)" stroke="rgb(255,255,255)" cx="511.69921875" cy="244.05374999999998" r="2.5"></circle><circle fill="rgb(30,115,181)" stroke="rgb(255,255,255)" cx="516.6640625" cy="266.68125" r="2.5"></circle><circle fill="rgb(30,115,181)" stroke="rgb(255,255,255)" cx="521.46875" cy="249.98000000000002" r="2.5"></circle><circle fill="rgb(30,115,181)" stroke="rgb(255,255,255)" cx="526.43359375" cy="247.82500000000002" r="2.5"></circle><circle fill="rgb(30,115,181)" stroke="rgb(255,255,255)" cx="531.3984375" cy="259.6775" r="2.5"></circle><circle fill="rgb(30,115,181)" stroke="rgb(255,255,255)" cx="535.8828125" cy="235.9725" r="2.5"></circle><circle fill="rgb(30,115,181)" stroke="rgb(255,255,255)" cx="540.84765625" cy="243.51500000000001" r="2.5"></circle><circle fill="rgb(30,115,181)" stroke="rgb(255,255,255)" cx="545.65234375" cy="235.43375" r="2.5"></circle><circle fill="rgb(30,115,181)" stroke="rgb(255,255,255)" cx="550.6171875" cy="196.64374999999998" r="2.5"></circle><circle fill="rgb(30,115,181)" stroke="rgb(255,255,255)" cx="555.421875" cy="166.47375" r="2.5"></circle><circle fill="rgb(30,115,181)" stroke="rgb(255,255,255)" cx="560.38671875" cy="158.93125000000003" r="2.5"></circle><circle fill="rgb(30,115,181)" stroke="rgb(255,255,255)" cx="565.3515625" cy="213.345" r="2.5"></circle><circle fill="rgb(30,115,181)" stroke="rgb(255,255,255)" cx="570.15625" cy="237.58875" r="2.5"></circle><circle fill="rgb(30,115,181)" stroke="rgb(255,255,255)" cx="575.12109375" cy="263.98749999999995" r="2.5"></circle><circle fill="rgb(30,115,181)" stroke="rgb(255,255,255)" cx="579.92578125" cy="249.44125" r="2.5"></circle><circle fill="rgb(30,115,181)" stroke="rgb(255,255,255)" cx="584.890625" cy="237.04999999999998" r="2.5"></circle><circle fill="rgb(30,115,181)" stroke="rgb(255,255,255)" cx="589.85546875" cy="246.7475" r="2.5"></circle><circle fill="rgb(30,115,181)" stroke="rgb(255,255,255)" cx="594.33984375" cy="212.26749999999998" r="2.5"></circle><circle fill="rgb(30,115,181)" stroke="rgb(255,255,255)" cx="599.3046875" cy="217.655" r="2.5"></circle><circle fill="rgb(30,115,181)" stroke="rgb(255,255,255)" cx="604.109375" cy="204.725" r="2.5"></circle><circle fill="rgb(30,115,181)" stroke="rgb(255,255,255)" cx="609.07421875" cy="176.71" r="2.5"></circle><circle fill="rgb(30,115,181)" stroke="rgb(255,255,255)" cx="613.87890625" cy="135.765" r="2.5"></circle><circle fill="rgb(30,115,181)" stroke="rgb(255,255,255)" cx="618.84375" cy="129.83875" r="2.5"></circle><circle fill="rgb(30,115,181)" stroke="rgb(255,255,255)" cx="623.80859375" cy="181.55875" r="2.5"></circle><circle fill="rgb(30,115,181)" stroke="rgb(255,255,255)" cx="628.61328125" cy="211.72875" r="2.5"></circle><circle fill="rgb(30,115,181)" stroke="rgb(255,255,255)" cx="633.578125" cy="235.9725" r="2.5"></circle><circle fill="rgb(30,115,181)" stroke="rgb(255,255,255)" cx="638.3828125" cy="212.80625" r="2.5"></circle><circle fill="rgb(30,115,181)" stroke="rgb(255,255,255)" cx="643.34765625" cy="206.34125" r="2.5"></circle><circle fill="rgb(30,115,181)" stroke="rgb(255,255,255)" cx="648.3125" cy="220.34875" r="2.5"></circle><circle fill="rgb(30,115,181)" stroke="rgb(255,255,255)" cx="652.95703125" cy="205.26375" r="2.5"></circle><circle fill="rgb(30,115,181)" stroke="rgb(255,255,255)" cx="657.921875" cy="182.63625" r="2.5"></circle><circle fill="rgb(30,115,181)" stroke="rgb(255,255,255)" cx="662.7265625" cy="176.71" r="2.5"></circle><circle fill="rgb(30,115,181)" stroke="rgb(255,255,255)" cx="667.69140625" cy="142.76874999999995" r="2.5"></circle><circle fill="rgb(30,115,181)" stroke="rgb(255,255,255)" cx="672.49609375" cy="95.89750000000004" r="2.5"></circle><circle fill="rgb(30,115,181)" stroke="rgb(255,255,255)" cx="677.4609375" cy="104.51749999999998" r="2.5"></circle><circle fill="rgb(30,115,181)" stroke="rgb(255,255,255)" cx="682.42578125" cy="157.315" r="2.5"></circle><circle fill="rgb(30,115,181)" stroke="rgb(255,255,255)" cx="687.23046875" cy="182.63625" r="2.5"></circle><circle fill="rgb(30,115,181)" stroke="rgb(255,255,255)" cx="692.1953125" cy="220.88750000000002" r="2.5"></circle><circle fill="rgb(30,115,181)" stroke="rgb(255,255,255)" cx="697" cy="198.26" r="2.5"></circle></g></g></g></svg>