<svg font-size="10px" font-family="sans-serif" font-style="" font-weight="" fill="none" stroke="none" stroke-width="1.5" xmlns="http://www.w3.org/2000/svg" xmlns:xlink="http://www.w3.org/1999/xlink" height="459" width="720" viewBox="0 0 720 459" version="1.1"><rect x="1" y="5" width="703" height="434" fill="rgb(255,255,255)"></rect><g transform="translate(1,5)"><rect width="703" height="434" stroke="rgb(204,204,204)"></rect></g><g transform="translate(1,5)"><path transform="translate(572,403)" pointer-events="none" stroke="none" d="M2.9,0l0,0l-2.6,0.7C0.2,0.7 0.1,0.8 0.1,1.0L0,3.9L0,3.9c0,0.0 0,0.0 0.0,0.1L1.3,4.9c0,0 0.0,0 0.0,0L4.1,4.1c0.0,0 0.1,-0.1 0.1,-0.2l0.1,-2.8c0,-0.0 0,-0.0 -0.0,-0.1C4.2,0.7 3.4,0.2 3.0,0C3.0,0 3.0,0 2.9,0z M11.2,6.2C10.9,6.2 10.9,6.5 10.9,6.7C10.6,7.6 10.4,8.4 10.1,9.4c0,0.1 0.1,0.3 0.2,0.3c0.9,0.0 1.9,0.1 3.0,0.2c0.2,0 0.2,-0.3 0.2,-0.4c0.2,-0.8 0.4,-1.7 0.7,-2.5c0,-0.1 -0.1,-0.3 -0.3,-0.3c-0.9,-0.0 -1.9,-0.1 -2.9,-0.2z M1.6,8.4c-0.3,0.1 -0.7,0.3 -1.2,0.6c-0.1,0.0 -0.1,0.1 -0.2,0.2c-0.0,0.1 -0.2,0.3 -0.0,0.3c0.7,0.6 1.6,1.3 2.4,2.0c0.0,0.0 0.2,0.1 0.3,0.0c0.3,-0.1 0.7,-0.3 1.1,-0.5c0.0,-0.1 0.2,-0.3 0.3,-0.4c0,-0.1 -0.1,-0.1 -0.1,-0.2c-0.7,-0.6 -1.5,-1.3 -2.3,-1.9c-0.0,0 -0.1,-0.0 -0.1,-0.0z M7.5,4.7c-0.1,0 -0.2,0.1 -0.4,0.1c-0.6,0.3 -1.3,0.7 -2.0,1.2c-0.1,0.1 -0.1,0.3 -0.2,0.4c-0.0,0.1 -0.1,0.2 -0.0,0.4c0.6,0.7 1.3,1.6 2.0,2.4c0.1,0.1 0.2,0 0.3,-0.0c0.7,-0.4 1.4,-0.8 2.2,-1.3c0.1,-0.1 0.2,-0.3 0.3,-0.5c0.0,-0.1 0.0,-0.3 0,-0.4c-0.6,-0.7 -1.3,-1.5 -1.9,-2.3c-0.0,-0.0 -0.0,-0.0 -0.1,-0.0z M8.6,10.4l-2.6,0.6c0,0 0,0 0,0c-0.1,0 -0.1,0.1 -0.1,0.2c0,0 0,0 0,0l-0.0,3.0c0,0.0 0,0.1 0.0,0.1l0.1,0.0l0,0l0,0c0,0 0.0,0 0.0,0L8.6,14.0c0.0,0 0.1,-0.1 0.1,-0.2l0.0,-3.0c0,-0.0 0,-0.1 -0.0,-0.1c0,0 -0.1,-0.0 -0.1,-0.0c0,0 -0.0,0 -0.0,0z M0.3,16.3L3.9,16.3L3.9,19.9L0.3,19.9L0.3,16.3z M5.4,16.3L9,16.3L9,19.9L5.4,19.9L5.4,16.3z M10.4,11.3L14,11.3L14,14.9L10.4,14.9L10.4,11.3z M10.4,16.3L14,16.3L14,19.9L10.4,19.9L10.4,16.3z M15.5,6.2L19.1,6.2L19.1,9.8L15.5,9.8L15.5,6.2z M15.5,11.3L19.1,11.3L19.1,14.9L15.5,14.9L15.5,11.3z M15.5,16.3L19.1,16.3L19.1,19.9L15.5,19.9L15.5,16.3z M27.9,20.4h-3.8l-0.3,-0.2v-13.1l0.3,-0.2h3.9c4.4,0,6.1,2.9,6.1,6.6C34.1,17.3,32.3,20.4,27.9,20.4M27.9,8.2h-2.1v10.4h2.0c2.5,0,4.1,-1.9,4.1,-5.3C32.0,10.2,30.7,8.2,27.9,8.2 M44.1,20.4l-1.2,0.2l-0.3,-0.1c-0.1,-0.4,-0.3,-1.2,-0.5,-1.9c-0.4,0.6,-2.2,1.9,-3.7,1.9c-1.0,0,-2.1,-1.2,-2.1,-2.9c0,-2.0,1.0,-2.7,3.8,-2.7h2.0v-1.6c0,-1.3,-0.4,-1.7,-1.6,-1.7c-1.3,0,-2.4,0.1,-3.0,0.3l-0.2,-0.2v-1.0l0.2,-0.2c0.7,-0.1,1.8,-0.3,3.3,-0.3c2.2,0,3.3,0.8,3.3,3.0v4.9c0.1,0.8,0.3,1.5,0.6,2.1L44.1,20.4M41.8,16.2h-2.1c-1.3,0,-1.6,0.3,-1.6,1.3c0,0.8,0.3,1.4,0.7,1.4c0.7,0,2.5,-0.9,3.0,-1.8V16.2 M51.6,20.1c-0.5,0.2,-1.3,0.4,-2.0,0.4c-1.8,0,-2.4,-0.5,-2.4,-2.8v-6.1h-1.0l-0.2,-0.2v-0.9l0.2,-0.2h1.0l0.1,-1.2l0.1,-0.2l1.1,-0.4l0.3,0.1v1.8h1.9l0.2,0.2v0.9l-0.2,0.2h-1.9v6.0c0,0.9,0.0,1.2,0.7,1.2c0.5,0,1.0,-0.1,1.7,-0.4l0.3,0.2v1.0L51.6,20.1 M61.2,20.4l-1.2,0.2l-0.3,-0.1c-0.1,-0.4,-0.4,-1.2,-0.5,-1.9c-0.4,0.6,-2.2,1.9,-3.7,1.9c-1.0,0,-2.1,-1.2,-2.1,-2.9c0,-2.0,1.0,-2.7,3.8,-2.7h2.0v-1.6c0,-1.3,-0.4,-1.7,-1.6,-1.7c-1.3,0,-2.4,0.1,-3.0,0.3l-0.2,-0.2v-1.0l0.2,-0.2c0.7,-0.1,1.8,-0.3,3.3,-0.3c2.2,0,3.3,0.8,3.3,3.0v4.9c0.1,0.8,0.3,1.5,0.6,2.1L61.2,20.4M58.9,16.2h-2.1c-1.3,0,-1.6,0.3,-1.6,1.3c0,0.8,0.3,1.4,0.7,1.4c0.7,0,2.5,-0.9,3.0,-1.8V16.2 M74.3,6.6L76.2,6.6L76.5,6.9L76.5,20.1L76.2,20.4L74.8,20.4L74.5,20.1L74.5,11.3L74.7,9.6L71.5,17.3L71.2,17.6L69.3,17.6L69.0,17.3L66.0,9.6L66.2,11.3L66.2,20.1L65.9,20.4L64.5,20.4L64.2,20.1L64.2,6.9L64.5,6.6L66.4,6.6L66.7,6.9L69.9,14.4L70.3,16.0L70.8,14.4L74.0,6.9 M87.3,20.4l-1.2,0.2l-0.3,-0.1c-0.1,-0.4,-0.4,-1.2,-0.5,-1.9c-0.4,0.6,-2.2,1.9,-3.7,1.9c-1.0,0,-2.1,-1.2,-2.1,-2.9c0,-2.0,1.1,-2.7,3.8,-2.7h2.0v-1.6c0,-1.3,-0.4,-1.7,-1.6,-1.7c-1.3,0,-2.4,0.1,-3.0,0.3l-0.2,-0.2v-1.0l0.2,-0.2c0.7,-0.1,1.9,-0.3,3.3,-0.3c2.2,0,3.3,0.8,3.3,3.0v4.9c0.1,0.8,0.3,1.5,0.6,2.1L87.3,20.4M84.9,16.2h-2.1c-1.3,0,-1.6,0.3,-1.6,1.3c0,0.8,0.3,1.4,0.7,1.4c0.7,0,2.5,-0.9,3.0,-1.8V16.2 M91.9,11.7c0.3,-0.7,0.9,-1.8,2.3,-1.8c0.3,0,1.0,0.2,1.4,0.3l0.1,0.3l-0.7,1.6l-0.3,0.0c-0.1,-0.1,-0.6,-0.7,-0.9,-0.7c-0.7,0,-1.4,1.3,-1.8,2.2v6.3l-0.2,0.2h-1.3l-0.2,-0.2v-7.5c-0.1,-0.8,-0.3,-1.4,-0.5,-2.1l0.1,-0.3l1.2,-0.2l0.3,0.1c0.2,0.6,0.4,1.3,0.5,1.9L91.9,11.7 M99.2,20.4h-1.3l-0.3,-0.2v-13.2l0.3,-0.2h1.3l0.2,0.2v13.2L99.2,20.4M101.8,14.8l3.6,4.8l-0.0,0.3l-1.3,0.4l-0.3,-0.1l-3.9,-5.4v-0.4l4.0,-4.5l0.4,-0.0l0.9,0.6l0.0,0.4L101.8,14.8 M114.7,14.8l-0.2,0.2h-5.7v0.3c0,2.4,0.7,3.5,2.4,3.5c0.9,0,2.1,-0.1,3.1,-0.5l0.2,0.1v1.0l-0.2,0.3c-0.9,0.3,-1.9,0.5,-3.3,0.5c-2.4,0,-4.2,-1.4,-4.2,-5.0c0,-2.8,1.0,-5.6,4.3,-5.6c2.1,0,3.7,1.3,3.7,3.5C114.8,13.9,114.8,14.4,114.7,14.8M113.0,13.4c0,-1.2,-0.7,-2.0,-1.9,-2.0c-1.5,0,-2.1,1.0,-2.2,2.2h4.2V13.4 M122.0,20.1c-0.5,0.2,-1.3,0.4,-2.0,0.4c-1.8,0,-2.4,-0.5,-2.4,-2.8v-6.1h-1.0l-0.2,-0.2v-0.9l0.2,-0.2h1.0l0.1,-1.2l0.1,-0.2l1.1,-0.4l0.3,0.1v1.8h1.9l0.2,0.2v0.9l-0.2,0.2h-1.9v6.0c0,0.9,0.0,1.2,0.7,1.2c0.5,0,1.0,-0.1,1.7,-0.4l0.3,0.2v1.0L122.0,20.1" fill="rgb(0,0,0)" fill-opacity="0.1"></path></g><g transform="translate(1,5)"></g><g transform="translate(1,5)"><line shape-rendering="crispEdges" cursor="auto" x1="0" y1="439" x2="0" y2="434" stroke="rgb(204,204,204)" stroke-width="1"></line><line shape-rendering="crispEdges" cursor="auto" x1="39.21072738386308" y1="439" x2="39.21072738386308" y2="434" stroke="rgb(204,204,204)" stroke-width="1"></line><line shape-rendering="crispEdges" cursor="auto" x1="78.52888141809291" y1="439" x2="78.52888141809291" y2="434" stroke="rgb(204,204,204)" stroke-width="1"></line><line shape-rendering="crispEdges" cursor="auto" x1="117.73960880195598" y1="439" x2="117.73960880195598" y2="434" stroke="rgb(204,204,204)" stroke-width="1"></line><line shape-rendering="crispEdges" cursor="auto" x1="156.95033618581905" y1="439" x2="156.95033618581905" y2="434" stroke="rgb(204,204,204)" stroke-width="1"></line><line shape-rendering="crispEdges" cursor="auto" x1="196.16106356968214" y1="439" x2="196.16106356968214" y2="434" stroke="rgb(204,204,204)" stroke-width="1"></line><line shape-rendering="crispEdges" cursor="auto" x1="235.47921760391196" y1="439" x2="235.47921760391196" y2="434" stroke="rgb(204,204,204)" stroke-width="1"></line><line shape-rendering="crispEdges" cursor="auto" x1="274.68994498777505" y1="439" x2="274.68994498777505" y2="434" stroke="rgb(204,204,204)" stroke-width="1"></line><line shape-rendering="crispEdges" cursor="auto" x1="313.9006723716381" y1="439" x2="313.9006723716381" y2="434" stroke="rgb(204,204,204)" stroke-width="1"></line><line shape-rendering="crispEdges" cursor="auto" x1="353.1113997555012" y1="439" x2="353.1113997555012" y2="434" stroke="rgb(204,204,204)" stroke-width="1"></line><line shape-rendering="crispEdges" cursor="auto" x1="392.429553789731" y1="439" x2="392.429553789731" y2="434" stroke="rgb(204,204,204)" stroke-width="1"></line><line shape-rendering="crispEdges" cursor="auto" x1="431.6402811735941" y1="439" x2="431.6402811735941" y2="434" stroke="rgb(204,204,204)" stroke-width="1"></line><line shape-rendering="crispEdges" cursor="auto" x1="470.85100855745725" y1="439" x2="470.85100855745725" y2="434" stroke="rgb(204,204,204)" stroke-width="1"></line><line shape-rendering="crispEdges" cursor="auto" x1="510.0617359413203" y1="439" x2="510.0617359413203" y2="434" stroke="rgb(204,204,204)" stroke-width="1"></line><line shape-rendering="crispEdges" cursor="auto" x1="549.3798899755501" y1="439" x2="549.3798899755501" y2="434" stroke="rgb(204,204,204)" stroke-width="1"></line><line shape-rendering="crispEdges" cursor="auto" x1="588.5906173594132" y1="439" x2="588.5906173594132" y2="434" stroke="rgb(204,204,204)" stroke-width="1"></line><line shape-rendering="crispEdges" cursor="auto" x1="627.8013447432762" y1="439" x2="627.8013447432762" y2="434" stroke="rgb(204,204,204)" stroke-width="1"></line><line shape-rendering="crispEdges" cursor="auto" x1="667.0120721271394" y1="439" x2="667.0120721271394" y2="434" stroke="rgb(204,204,204)" stroke-width="1"></line></g><g transform="translate(1,5)"><text pointer-events="all" y="-3" fill="rgb(0,0,0)" stroke-width="0.5" text-anchor="middle" transform="translate(0,444)" style="font-size: 10px; font-family: sans-serif"><tspan x="0" dy="10">1955</tspan></text><text pointer-events="all" y="-3" fill="rgb(0,0,0)" stroke-width="0.5" text-anchor="middle" transform="translate(39.21072738386308,444)" style="font-size: 10px; font-family: sans-serif"><tspan x="0" dy="10">1956</tspan></text><text pointer-events="all" y="-3" fill="rgb(0,0,0)" stroke-width="0.5" text-anchor="middle" transform="translate(78.52888141809291,444)" style="font-size: 10px; font-family: sans-serif"><tspan x="0" dy="10">1957</tspan></text><text pointer-events="all" y="-3" fill="rgb(0,0,0)" stroke-width="0.5" text-anchor="middle" transform="translate(117.73960880195598,444)" style="font-size: 10px; font-family: sans-serif"><tspan x="0" dy="10">1958</tspan></text><text pointer-events="all" y="-3" fill="rgb(0,0,0)" stroke-width="0.5" text-anchor="middle" transform="translate(156.95033618581905,444)" style="font-size: 10px; font-family: sans-serif"><tspan x="0" dy="10">1959</tspan></text><text pointer-events="all" y="-3" fill="rgb(0,0,0)" stroke-width="0.5" text-anchor="middle" transform="translate(196.16106356968214,444)" style="font-size: 10px; font-family: sans-serif"><tspan x="0" dy="10">1960</tspan></text><text pointer-events="all" y="-3" fill="rgb(0,0,0)" stroke-width="0.5" text-anchor="middle" transform="translate(235.47921760391196,444)" style="font-size: 10px; font-family: sans-serif"><tspan x="0" dy="10">1961</tspan></text><text pointer-events="all" y="-3" fill="rgb(0,0,0)" stroke-width="0.5" text-anchor="middle" transform="translate(274.68994498777505,444)" style="font-size: 10px; font-family: sans-serif"><tspan x="0" dy="10">1962</tspan></text><text pointer-events="all" y="-3" fill="rgb(0,0,0)" stroke-width="0.5" text-anchor="middle" transform="translate(313.9006723716381,444)" style="font-size: 10px; font-family: sans-serif"><tspan x="0" dy="10">1963</tspan></text><text pointer-events="all" y="-3" fill="rgb(0,0,0)" stroke-width="0.5" text-anchor="middle" transform="translate(353.1113997555012,444)" style="font-size: 10px; font-family: sans-serif"><tspan x="0" dy="10">1964</tspan></text><text pointer-events="all" y="-3" fill="rgb(0,0,0)" stroke-width="0.5" text-anchor="middle" transform="translate(392.429553789731,444)" style="font-size: 10px; font-family: sans-serif"><tspan x="0" dy="10">1965</tspan></text><text pointer-events="all" y="-3" fill="rgb(0,0,0)" stroke-width="0.5" text-anchor="middle" transform="translate(431.6402811735941,444)" style="font-size: 10px; font-family: sans-serif"><tspan x="0" dy="10">1966</tspan></text><text pointer-events="all" y="-3" fill="rgb(0,0,0)" stroke-width="0.5" text-anchor="middle" transform="translate(470.85100855745725,444)" style="font-size: 10px; font-family: sans-serif"><tspan x="0" dy="10">1967</tspan></text><text pointer-events="all" y="-3" fill="rgb(0,0,0)" stroke-width="0.5" text-anchor="middle" transform="translate(510.0617359413203,444)" style="font-size: 10px; font-family: sans-serif"><tspan x="0" dy="10">1968</tspan></text><text pointer-events="all" y="-3" fill="rgb(0,0,0)" stroke-width="0.5" text-anchor="middle" transform="translate(549.3798899755501,444)" style="font-size: 10px; font-family: sans-serif"><tspan x="0" dy="10">1969</tspan></text><text pointer-events="all" y="-3" fill="rgb(0,0,0)" stroke-width="0.5" text-anchor="middle" transform="translate(588.5906173594132,444)" style="font-size: 10px; font-family: sans-serif"><tspan x="0" dy="10">1970</tspan></text><text pointer-events="all" y="-3" fill="rgb(0,0,0)" stroke-width="0.5" text-anchor="middle" transform="translate(627.8013447432762,444)" style="font-size: 10px; font-family: sans-serif"><tspan x="0" dy="10">1971</tspan></text><text pointer-events="all" y="-3" fill="rgb(0,0,0)" stroke-width="0.5" text-anchor="middle" transform="translate(667.0120721271394,444)" style="font-size: 10px; font-family: sans-serif"><tspan x="0" dy="10">1972</tspan></text></g><g transform="translate(1,5)"><line shape-rendering="crispEdges" cursor="auto" x1="0" y1="434" x2="703" y2="434" stroke-width="1" stroke="rgb(0,0,0)" stroke-opacity="0.2"></line><line shape-rendering="crispEdges" cursor="auto" x1="0" y1="347.2" x2="703" y2="347.2" stroke-width="1" stroke="rgb(0,0,0)" stroke-opacity="0.07"></line><line shape-rendering="crispEdges" cursor="auto" x1="0" y1="260.4" x2="703" y2="260.4" stroke-width="1" stroke="rgb(0,0,0)" stroke-opacity="0.07"></line><line shape-rendering="crispEdges" cursor="auto" x1="0" y1="173.59999999999997" x2="703" y2="173.59999999999997" stroke-width="1" stroke="rgb(0,0,0)" stroke-opacity="0.07"></line><line shape-rendering="crispEdges" cursor="auto" x1="0" y1="86.79999999999995" x2="703" y2="86.79999999999995" stroke-width="1" stroke="rgb(0,0,0)" stroke-opacity="0.07"></line><line shape-rendering="crispEdges" cursor="auto" x1="0" y1="0" x2="703" y2="0" stroke-width="1" stroke="rgb(0,0,0)" stroke-opacity="0.07"></line></g><g transform="translate(1,5)"></g><g transform="translate(1,5)"><text pointer-events="all" y="-6.5" fill="rgb(0,0,0)" stroke-width="0.5" transform="translate(708,434)" style="font-size: 10px; font-family: sans-serif"><tspan x="0" dy="10">0</tspan></text><text pointer-events="all" y="-6.5" fill="rgb(0,0,0)" stroke-width="0.5" transform="translate(708,347.2)" style="font-size: 10px; font-family: sans-serif"><tspan x="0" dy="10">2</tspan></text><text pointer-events="all" y="-6.5" fill="rgb(0,0,0)" stroke-width="0.5" transform="translate(708,260.4)" style="font-size: 10px; font-family: sans-serif"><tspan x="0" dy="10">4</tspan></text><text pointer-events="all" y="-6.5" fill="rgb(0,0,0)" stroke-width="0.5" transform="translate(708,173.59999999999997)" style="font-size: 10px; font-family: sans-serif"><tspan x="0" dy="10">6</tspan></text><text pointer-events="all" y="-6.5" fill="rgb(0,0,0)" stroke-width="0.5" transform="translate(708,86.79999999999995)" style="font-size: 10px; font-family: sans-serif"><tspan x="0" dy="10">8</tspan></text><text pointer-events="all" y="-6.5" fill="rgb(0,0,0)" stroke-width="0.5" transform="translate(708,0)" style="font-size: 10px; font-family: sans-serif"><tspan x="0" dy="10">10</tspan></text></g><g transform="translate(1,5)"><g><g><path stroke="rgb(30,115,181)" stroke-width="1.6" d="M0,316.82L0,316.82L3.330,347.2L6.338,277.76L9.668,217L12.891,151.899L16.221,169.26L19.444,177.939L22.774,217L26.104,156.239L29.327,112.839L32.657,78.12L35.880,264.74L39.210,256.06L42.540,238.7L45.656,195.299L48.986,269.08L52.209,225.68L55.539,190.960L58.762,160.579L62.092,177.939L65.422,56.420L68.645,203.98L71.975,186.619L75.198,186.619L78.528,303.799L81.859,286.44L84.867,221.339L88.197,238.7L91.420,260.4L94.750,186.619L97.973,160.579L101.303,125.860L104.633,86.799L107.856,208.32L111.186,217L114.409,230.019L117.739,273.419L121.069,299.46L124.077,325.5L127.408,260.4L130.630,256.06L133.961,234.36L137.183,243.039L140.514,251.719L143.844,212.66L147.067,234.36L150.397,243.039L153.620,260.4L156.950,308.14L160.280,329.840L163.288,230.019L166.618,212.66L169.841,260.4L173.171,108.5L176.394,99.82L179.724,160.579L183.055,203.98L186.277,186.619L189.608,225.68L192.830,316.82L196.161,360.22L199.491,347.2L202.606,286.44L205.936,260.4L209.159,247.38L212.489,217L215.712,195.299L219.042,217L222.373,199.64L225.595,269.08L228.926,329.840L232.148,347.2L235.479,338.52L238.809,325.5L241.817,321.159L245.147,290.78L248.370,308.14L251.700,247.38L254.923,251.719L258.253,251.719L261.583,264.74L264.806,264.74L268.136,325.5L271.359,338.52L274.689,329.840L278.020,351.539L281.028,342.86L284.358,238.7L287.581,290.78L290.911,286.44L294.134,256.06L297.464,186.619L300.794,225.68L304.017,217L307.347,312.48L310.570,308.14L313.900,360.22L317.230,295.12L320.238,316.82L323.569,303.799L326.791,286.44L330.122,269.08L333.344,217L336.675,225.68L340.005,221.339L343.228,282.1L346.558,325.5L349.781,329.840L353.111,364.56L356.441,334.18L359.556,325.5L362.887,299.46L366.110,282.1L369.440,238.7L372.663,186.619L375.993,217L379.323,234.36L382.546,225.68L385.876,342.86L389.099,373.24L392.429,342.86L395.759,308.14L398.767,316.82L402.097,251.719L405.320,264.74L408.650,256.06L411.873,234.36L415.204,182.280L418.534,243.039L421.757,169.26L425.087,282.1L428.310,351.539L431.640,355.88L434.970,351.539L437.978,273.419L441.308,243.039L444.531,269.08L447.861,190.960L451.084,186.619L454.414,212.66L457.744,190.960L460.967,225.68L464.297,325.5L467.520,368.9L470.851,355.88L474.181,325.5L477.189,321.159L480.519,355.88L483.742,273.419L487.072,273.419L490.295,221.339L493.625,212.66L496.955,273.419L500.178,199.64L503.508,303.799L506.731,355.88L510.061,342.86L513.391,321.159L516.507,312.48L519.837,295.12L523.060,282.1L526.390,282.1L529.613,221.339L532.943,251.719L536.273,230.019L539.496,273.419L542.826,295.12L546.049,355.88L549.379,347.2L552.710,360.22L555.718,312.48L559.048,295.12L562.271,243.039L565.601,286.44L568.824,264.74L572.154,195.299L575.484,269.08L578.707,295.12L582.037,334.18L585.260,338.52L588.590,377.58L591.920,334.18L594.928,316.82L598.259,290.78L601.481,273.419L604.812,303.799L608.034,269.08L611.365,230.019L614.695,234.36L617.918,308.14L621.248,360.22L624.471,377.58L627.801,355.88L631.131,347.2L634.139,338.52L637.469,303.799L640.692,329.840L644.022,282.1L647.245,282.1L650.575,290.78L653.906,316.82L657.128,325.5L660.459,364.56L663.681,381.92L667.012,368.9L670.342,347.2L673.457,299.46L676.787,303.799L680.010,282.1L683.340,286.44L686.563,260.4L689.893,269.08L693.224,299.46L696.446,342.86L699.777,364.56L703,377.58"></path></g><g><circle fill="rgb(30,115,181)" stroke="rgb(255,255,255)" cx="0" cy="316.82" r="2.5"></circle><circle fill="rgb(30,115,181)" stroke="rgb(255,255,255)" cx="3.3302261613691932" cy="347.2" r="2.5"></circle><circle fill="rgb(30,115,181)" stroke="rgb(255,255,255)" cx="6.338172371638142" cy="277.76" r="2.5"></circle><circle fill="rgb(30,115,181)" stroke="rgb(255,255,255)" cx="9.668398533007334" cy="217" r="2.5"></circle><circle fill="rgb(30,115,181)" stroke="rgb(255,255,255)" cx="12.891198044009778" cy="151.89999999999998" r="2.5"></circle><circle fill="rgb(30,115,181)" stroke="rgb(255,255,255)" cx="16.221424205378973" cy="169.26" r="2.5"></circle><circle fill="rgb(30,115,181)" stroke="rgb(255,255,255)" cx="19.44422371638142" cy="177.93999999999994" r="2.5"></circle><circle fill="rgb(30,115,181)" stroke="rgb(255,255,255)" cx="22.77444987775061" cy="217" r="2.5"></circle><circle fill="rgb(30,115,181)" stroke="rgb(255,255,255)" cx="26.104676039119806" cy="156.23999999999995" r="2.5"></circle><circle fill="rgb(30,115,181)" stroke="rgb(255,255,255)" cx="29.327475550122244" cy="112.83999999999997" r="2.5"></circle><circle fill="rgb(30,115,181)" stroke="rgb(255,255,255)" cx="32.65770171149144" cy="78.12" r="2.5"></circle><circle fill="rgb(30,115,181)" stroke="rgb(255,255,255)" cx="35.88050122249388" cy="264.74" r="2.5"></circle><circle fill="rgb(30,115,181)" stroke="rgb(255,255,255)" cx="39.21072738386308" cy="256.06" r="2.5"></circle><circle fill="rgb(30,115,181)" stroke="rgb(255,255,255)" cx="42.54095354523227" cy="238.7" r="2.5"></circle><circle fill="rgb(30,115,181)" stroke="rgb(255,255,255)" cx="45.65632640586797" cy="195.29999999999998" r="2.5"></circle><circle fill="rgb(30,115,181)" stroke="rgb(255,255,255)" cx="48.98655256723716" cy="269.08" r="2.5"></circle><circle fill="rgb(30,115,181)" stroke="rgb(255,255,255)" cx="52.20935207823961" cy="225.68" r="2.5"></circle><circle fill="rgb(30,115,181)" stroke="rgb(255,255,255)" cx="55.539578239608794" cy="190.96000000000004" r="2.5"></circle><circle fill="rgb(30,115,181)" stroke="rgb(255,255,255)" cx="58.76237775061124" cy="160.57999999999998" r="2.5"></circle><circle fill="rgb(30,115,181)" stroke="rgb(255,255,255)" cx="62.09260391198044" cy="177.93999999999994" r="2.5"></circle><circle fill="rgb(30,115,181)" stroke="rgb(255,255,255)" cx="65.42283007334963" cy="56.420000000000016" r="2.5"></circle><circle fill="rgb(30,115,181)" stroke="rgb(255,255,255)" cx="68.64562958435206" cy="203.98" r="2.5"></circle><circle fill="rgb(30,115,181)" stroke="rgb(255,255,255)" cx="71.97585574572126" cy="186.61999999999998" r="2.5"></circle><circle fill="rgb(30,115,181)" stroke="rgb(255,255,255)" cx="75.19865525672371" cy="186.61999999999998" r="2.5"></circle><circle fill="rgb(30,115,181)" stroke="rgb(255,255,255)" cx="78.52888141809291" cy="303.79999999999995" r="2.5"></circle><circle fill="rgb(30,115,181)" stroke="rgb(255,255,255)" cx="81.85910757946209" cy="286.44" r="2.5"></circle><circle fill="rgb(30,115,181)" stroke="rgb(255,255,255)" cx="84.86705378973105" cy="221.33999999999997" r="2.5"></circle><circle fill="rgb(30,115,181)" stroke="rgb(255,255,255)" cx="88.19727995110024" cy="238.7" r="2.5"></circle><circle fill="rgb(30,115,181)" stroke="rgb(255,255,255)" cx="91.42007946210268" cy="260.4" r="2.5"></circle><circle fill="rgb(30,115,181)" stroke="rgb(255,255,255)" cx="94.75030562347187" cy="186.61999999999998" r="2.5"></circle><circle fill="rgb(30,115,181)" stroke="rgb(255,255,255)" cx="97.97310513447432" cy="160.57999999999998" r="2.5"></circle><circle fill="rgb(30,115,181)" stroke="rgb(255,255,255)" cx="101.3033312958435" cy="125.86000000000001" r="2.5"></circle><circle fill="rgb(30,115,181)" stroke="rgb(255,255,255)" cx="104.6335574572127" cy="86.79999999999995" r="2.5"></circle><circle fill="rgb(30,115,181)" stroke="rgb(255,255,255)" cx="107.85635696821515" cy="208.32" r="2.5"></circle><circle fill="rgb(30,115,181)" stroke="rgb(255,255,255)" cx="111.18658312958435" cy="217" r="2.5"></circle><circle fill="rgb(30,115,181)" stroke="rgb(255,255,255)" cx="114.40938264058678" cy="230.01999999999998" r="2.5"></circle><circle fill="rgb(30,115,181)" stroke="rgb(255,255,255)" cx="117.73960880195598" cy="273.41999999999996" r="2.5"></circle><circle fill="rgb(30,115,181)" stroke="rgb(255,255,255)" cx="121.06983496332518" cy="299.46" r="2.5"></circle><circle fill="rgb(30,115,181)" stroke="rgb(255,255,255)" cx="124.07778117359412" cy="325.5" r="2.5"></circle><circle fill="rgb(30,115,181)" stroke="rgb(255,255,255)" cx="127.40800733496332" cy="260.4" r="2.5"></circle><circle fill="rgb(30,115,181)" stroke="rgb(255,255,255)" cx="130.63080684596576" cy="256.06" r="2.5"></circle><circle fill="rgb(30,115,181)" stroke="rgb(255,255,255)" cx="133.96103300733498" cy="234.36" r="2.5"></circle><circle fill="rgb(30,115,181)" stroke="rgb(255,255,255)" cx="137.1838325183374" cy="243.03999999999996" r="2.5"></circle><circle fill="rgb(30,115,181)" stroke="rgb(255,255,255)" cx="140.5140586797066" cy="251.71999999999997" r="2.5"></circle><circle fill="rgb(30,115,181)" stroke="rgb(255,255,255)" cx="143.8442848410758" cy="212.66" r="2.5"></circle><circle fill="rgb(30,115,181)" stroke="rgb(255,255,255)" cx="147.06708435207824" cy="234.36" r="2.5"></circle><circle fill="rgb(30,115,181)" stroke="rgb(255,255,255)" cx="150.39731051344742" cy="243.03999999999996" r="2.5"></circle><circle fill="rgb(30,115,181)" stroke="rgb(255,255,255)" cx="153.62011002444987" cy="260.4" r="2.5"></circle><circle fill="rgb(30,115,181)" stroke="rgb(255,255,255)" cx="156.95033618581905" cy="308.14" r="2.5"></circle><circle fill="rgb(30,115,181)" stroke="rgb(255,255,255)" cx="160.28056234718827" cy="329.84000000000003" r="2.5"></circle><circle fill="rgb(30,115,181)" stroke="rgb(255,255,255)" cx="163.2885085574572" cy="230.01999999999998" r="2.5"></circle><circle fill="rgb(30,115,181)" stroke="rgb(255,255,255)" cx="166.6187347188264" cy="212.66" r="2.5"></circle><circle fill="rgb(30,115,181)" stroke="rgb(255,255,255)" cx="169.84153422982882" cy="260.4" r="2.5"></circle><circle fill="rgb(30,115,181)" stroke="rgb(255,255,255)" cx="173.17176039119803" cy="108.5" r="2.5"></circle><circle fill="rgb(30,115,181)" stroke="rgb(255,255,255)" cx="176.39455990220048" cy="99.82" r="2.5"></circle><circle fill="rgb(30,115,181)" stroke="rgb(255,255,255)" cx="179.7247860635697" cy="160.57999999999998" r="2.5"></circle><circle fill="rgb(30,115,181)" stroke="rgb(255,255,255)" cx="183.05501222493888" cy="203.98" r="2.5"></circle><circle fill="rgb(30,115,181)" stroke="rgb(255,255,255)" cx="186.27781173594133" cy="186.61999999999998" r="2.5"></circle><circle fill="rgb(30,115,181)" stroke="rgb(255,255,255)" cx="189.6080378973105" cy="225.68" r="2.5"></circle><circle fill="rgb(30,115,181)" stroke="rgb(255,255,255)" cx="192.83083740831296" cy="316.82" r="2.5"></circle><circle fill="rgb(30,115,181)" stroke="rgb(255,255,255)" cx="196.16106356968214" cy="360.22" r="2.5"></circle><circle fill="rgb(30,115,181)" stroke="rgb(255,255,255)" cx="199.49128973105135" cy="347.2" r="2.5"></circle><circle fill="rgb(30,115,181)" stroke="rgb(255,255,255)" cx="202.606662591687" cy="286.44" r="2.5"></circle><circle fill="rgb(30,115,181)" stroke="rgb(255,255,255)" cx="205.93688875305622" cy="260.4" r="2.5"></circle><circle fill="rgb(30,115,181)" stroke="rgb(255,255,255)" cx="209.15968826405867" cy="247.38" r="2.5"></circle><circle fill="rgb(30,115,181)" stroke="rgb(255,255,255)" cx="212.48991442542788" cy="217" r="2.5"></circle><circle fill="rgb(30,115,181)" stroke="rgb(255,255,255)" cx="215.7127139364303" cy="195.29999999999998" r="2.5"></circle><circle fill="rgb(30,115,181)" stroke="rgb(255,255,255)" cx="219.04294009779952" cy="217" r="2.5"></circle><circle fill="rgb(30,115,181)" stroke="rgb(255,255,255)" cx="222.3731662591687" cy="199.64" r="2.5"></circle><circle fill="rgb(30,115,181)" stroke="rgb(255,255,255)" cx="225.59596577017115" cy="269.08" r="2.5"></circle><circle fill="rgb(30,115,181)" stroke="rgb(255,255,255)" cx="228.92619193154033" cy="329.84000000000003" r="2.5"></circle><circle fill="rgb(30,115,181)" stroke="rgb(255,255,255)" cx="232.14899144254278" cy="347.2" r="2.5"></circle><circle fill="rgb(30,115,181)" stroke="rgb(255,255,255)" cx="235.47921760391196" cy="338.52" r="2.5"></circle><circle fill="rgb(30,115,181)" stroke="rgb(255,255,255)" cx="238.80944376528117" cy="325.5" r="2.5"></circle><circle fill="rgb(30,115,181)" stroke="rgb(255,255,255)" cx="241.81738997555013" cy="321.15999999999997" r="2.5"></circle><circle fill="rgb(30,115,181)" stroke="rgb(255,255,255)" cx="245.1476161369193" cy="290.78" r="2.5"></circle><circle fill="rgb(30,115,181)" stroke="rgb(255,255,255)" cx="248.37041564792176" cy="308.14" r="2.5"></circle><circle fill="rgb(30,115,181)" stroke="rgb(255,255,255)" cx="251.70064180929094" cy="247.38" r="2.5"></circle><circle fill="rgb(30,115,181)" stroke="rgb(255,255,255)" cx="254.9234413202934" cy="251.71999999999997" r="2.5"></circle><circle fill="rgb(30,115,181)" stroke="rgb(255,255,255)" cx="258.2536674816626" cy="251.71999999999997" r="2.5"></circle><circle fill="rgb(30,115,181)" stroke="rgb(255,255,255)" cx="261.5838936430318" cy="264.74" r="2.5"></circle><circle fill="rgb(30,115,181)" stroke="rgb(255,255,255)" cx="264.80669315403424" cy="264.74" r="2.5"></circle><circle fill="rgb(30,115,181)" stroke="rgb(255,255,255)" cx="268.1369193154034" cy="325.5" r="2.5"></circle><circle fill="rgb(30,115,181)" stroke="rgb(255,255,255)" cx="271.35971882640587" cy="338.52" r="2.5"></circle><circle fill="rgb(30,115,181)" stroke="rgb(255,255,255)" cx="274.68994498777505" cy="329.84000000000003" r="2.5"></circle><circle fill="rgb(30,115,181)" stroke="rgb(255,255,255)" cx="278.02017114914423" cy="351.53999999999996" r="2.5"></circle><circle fill="rgb(30,115,181)" stroke="rgb(255,255,255)" cx="281.0281173594132" cy="342.86" r="2.5"></circle><circle fill="rgb(30,115,181)" stroke="rgb(255,255,255)" cx="284.3583435207824" cy="238.7" r="2.5"></circle><circle fill="rgb(30,115,181)" stroke="rgb(255,255,255)" cx="287.58114303178485" cy="290.78" r="2.5"></circle><circle fill="rgb(30,115,181)" stroke="rgb(255,255,255)" cx="290.91136919315403" cy="286.44" r="2.5"></circle><circle fill="rgb(30,115,181)" stroke="rgb(255,255,255)" cx="294.1341687041565" cy="256.06" r="2.5"></circle><circle fill="rgb(30,115,181)" stroke="rgb(255,255,255)" cx="297.46439486552566" cy="186.61999999999998" r="2.5"></circle><circle fill="rgb(30,115,181)" stroke="rgb(255,255,255)" cx="300.79462102689484" cy="225.68" r="2.5"></circle><circle fill="rgb(30,115,181)" stroke="rgb(255,255,255)" cx="304.0174205378973" cy="217" r="2.5"></circle><circle fill="rgb(30,115,181)" stroke="rgb(255,255,255)" cx="307.3476466992665" cy="312.48" r="2.5"></circle><circle fill="rgb(30,115,181)" stroke="rgb(255,255,255)" cx="310.5704462102689" cy="308.14" r="2.5"></circle><circle fill="rgb(30,115,181)" stroke="rgb(255,255,255)" cx="313.9006723716381" cy="360.22" r="2.5"></circle><circle fill="rgb(30,115,181)" stroke="rgb(255,255,255)" cx="317.2308985330073" cy="295.12" r="2.5"></circle><circle fill="rgb(30,115,181)" stroke="rgb(255,255,255)" cx="320.2388447432763" cy="316.82" r="2.5"></circle><circle fill="rgb(30,115,181)" stroke="rgb(255,255,255)" cx="323.56907090464546" cy="303.79999999999995" r="2.5"></circle><circle fill="rgb(30,115,181)" stroke="rgb(255,255,255)" cx="326.7918704156479" cy="286.44" r="2.5"></circle><circle fill="rgb(30,115,181)" stroke="rgb(255,255,255)" cx="330.1220965770171" cy="269.08" r="2.5"></circle><circle fill="rgb(30,115,181)" stroke="rgb(255,255,255)" cx="333.34489608801954" cy="217" r="2.5"></circle><circle fill="rgb(30,115,181)" stroke="rgb(255,255,255)" cx="336.6751222493887" cy="225.68" r="2.5"></circle><circle fill="rgb(30,115,181)" stroke="rgb(255,255,255)" cx="340.0053484107579" cy="221.33999999999997" r="2.5"></circle><circle fill="rgb(30,115,181)" stroke="rgb(255,255,255)" cx="343.2281479217604" cy="282.1" r="2.5"></circle><circle fill="rgb(30,115,181)" stroke="rgb(255,255,255)" cx="346.5583740831296" cy="325.5" r="2.5"></circle><circle fill="rgb(30,115,181)" stroke="rgb(255,255,255)" cx="349.78117359413204" cy="329.84000000000003" r="2.5"></circle><circle fill="rgb(30,115,181)" stroke="rgb(255,255,255)" cx="353.1113997555012" cy="364.56" r="2.5"></circle><circle fill="rgb(30,115,181)" stroke="rgb(255,255,255)" cx="356.44162591687035" cy="334.18" r="2.5"></circle><circle fill="rgb(30,115,181)" stroke="rgb(255,255,255)" cx="359.55699877750607" cy="325.5" r="2.5"></circle><circle fill="rgb(30,115,181)" stroke="rgb(255,255,255)" cx="362.8872249388753" cy="299.46" r="2.5"></circle><circle fill="rgb(30,115,181)" stroke="rgb(255,255,255)" cx="366.11002444987776" cy="282.1" r="2.5"></circle><circle fill="rgb(30,115,181)" stroke="rgb(255,255,255)" cx="369.44025061124694" cy="238.7" r="2.5"></circle><circle fill="rgb(30,115,181)" stroke="rgb(255,255,255)" cx="372.66305012224933" cy="186.61999999999998" r="2.5"></circle><circle fill="rgb(30,115,181)" stroke="rgb(255,255,255)" cx="375.99327628361857" cy="217" r="2.5"></circle><circle fill="rgb(30,115,181)" stroke="rgb(255,255,255)" cx="379.32350244498775" cy="234.36" r="2.5"></circle><circle fill="rgb(30,115,181)" stroke="rgb(255,255,255)" cx="382.5463019559902" cy="225.68" r="2.5"></circle><circle fill="rgb(30,115,181)" stroke="rgb(255,255,255)" cx="385.87652811735944" cy="342.86" r="2.5"></circle><circle fill="rgb(30,115,181)" stroke="rgb(255,255,255)" cx="389.09932762836183" cy="373.24" r="2.5"></circle><circle fill="rgb(30,115,181)" stroke="rgb(255,255,255)" cx="392.429553789731" cy="342.86" r="2.5"></circle><circle fill="rgb(30,115,181)" stroke="rgb(255,255,255)" cx="395.75977995110026" cy="308.14" r="2.5"></circle><circle fill="rgb(30,115,181)" stroke="rgb(255,255,255)" cx="398.7677261613692" cy="316.82" r="2.5"></circle><circle fill="rgb(30,115,181)" stroke="rgb(255,255,255)" cx="402.09795232273837" cy="251.71999999999997" r="2.5"></circle><circle fill="rgb(30,115,181)" stroke="rgb(255,255,255)" cx="405.3207518337408" cy="264.74" r="2.5"></circle><circle fill="rgb(30,115,181)" stroke="rgb(255,255,255)" cx="408.65097799511" cy="256.06" r="2.5"></circle><circle fill="rgb(30,115,181)" stroke="rgb(255,255,255)" cx="411.87377750611245" cy="234.36" r="2.5"></circle><circle fill="rgb(30,115,181)" stroke="rgb(255,255,255)" cx="415.20400366748163" cy="182.28000000000003" r="2.5"></circle><circle fill="rgb(30,115,181)" stroke="rgb(255,255,255)" cx="418.5342298288508" cy="243.03999999999996" r="2.5"></circle><circle fill="rgb(30,115,181)" stroke="rgb(255,255,255)" cx="421.75702933985326" cy="169.26" r="2.5"></circle><circle fill="rgb(30,115,181)" stroke="rgb(255,255,255)" cx="425.0872555012225" cy="282.1" r="2.5"></circle><circle fill="rgb(30,115,181)" stroke="rgb(255,255,255)" cx="428.3100550122249" cy="351.53999999999996" r="2.5"></circle><circle fill="rgb(30,115,181)" stroke="rgb(255,255,255)" cx="431.6402811735941" cy="355.88" r="2.5"></circle><circle fill="rgb(30,115,181)" stroke="rgb(255,255,255)" cx="434.9705073349633" cy="351.53999999999996" r="2.5"></circle><circle fill="rgb(30,115,181)" stroke="rgb(255,255,255)" cx="437.97845354523224" cy="273.41999999999996" r="2.5"></circle><circle fill="rgb(30,115,181)" stroke="rgb(255,255,255)" cx="441.3086797066015" cy="243.03999999999996" r="2.5"></circle><circle fill="rgb(30,115,181)" stroke="rgb(255,255,255)" cx="444.5314792176039" cy="269.08" r="2.5"></circle><circle fill="rgb(30,115,181)" stroke="rgb(255,255,255)" cx="447.86170537897306" cy="190.96000000000004" r="2.5"></circle><circle fill="rgb(30,115,181)" stroke="rgb(255,255,255)" cx="451.0845048899755" cy="186.61999999999998" r="2.5"></circle><circle fill="rgb(30,115,181)" stroke="rgb(255,255,255)" cx="454.41473105134475" cy="212.66" r="2.5"></circle><circle fill="rgb(30,115,181)" stroke="rgb(255,255,255)" cx="457.74495721271387" cy="190.96000000000004" r="2.5"></circle><circle fill="rgb(30,115,181)" stroke="rgb(255,255,255)" cx="460.9677567237164" cy="225.68" r="2.5"></circle><circle fill="rgb(30,115,181)" stroke="rgb(255,255,255)" cx="464.29798288508556" cy="325.5" r="2.5"></circle><circle fill="rgb(30,115,181)" stroke="rgb(255,255,255)" cx="467.520782396088" cy="368.9" r="2.5"></circle><circle fill="rgb(30,115,181)" stroke="rgb(255,255,255)" cx="470.85100855745725" cy="355.88" r="2.5"></circle><circle fill="rgb(30,115,181)" stroke="rgb(255,255,255)" cx="474.1812347188264" cy="325.5" r="2.5"></circle><circle fill="rgb(30,115,181)" stroke="rgb(255,255,255)" cx="477.1891809290953" cy="321.15999999999997" r="2.5"></circle><circle fill="rgb(30,115,181)" stroke="rgb(255,255,255)" cx="480.51940709046454" cy="355.88" r="2.5"></circle><circle fill="rgb(30,115,181)" stroke="rgb(255,255,255)" cx="483.742206601467" cy="273.41999999999996" r="2.5"></circle><circle fill="rgb(30,115,181)" stroke="rgb(255,255,255)" cx="487.0724327628361" cy="273.41999999999996" r="2.5"></circle><circle fill="rgb(30,115,181)" stroke="rgb(255,255,255)" cx="490.2952322738386" cy="221.33999999999997" r="2.5"></circle><circle fill="rgb(30,115,181)" stroke="rgb(255,255,255)" cx="493.6254584352078" cy="212.66" r="2.5"></circle><circle fill="rgb(30,115,181)" stroke="rgb(255,255,255)" cx="496.95568459657704" cy="273.41999999999996" r="2.5"></circle><circle fill="rgb(30,115,181)" stroke="rgb(255,255,255)" cx="500.17848410757944" cy="199.64" r="2.5"></circle><circle fill="rgb(30,115,181)" stroke="rgb(255,255,255)" cx="503.5087102689486" cy="303.79999999999995" r="2.5"></circle><circle fill="rgb(30,115,181)" stroke="rgb(255,255,255)" cx="506.73150977995107" cy="355.88" r="2.5"></circle><circle fill="rgb(30,115,181)" stroke="rgb(255,255,255)" cx="510.0617359413203" cy="342.86" r="2.5"></circle><circle fill="rgb(30,115,181)" stroke="rgb(255,255,255)" cx="513.3919621026895" cy="321.15999999999997" r="2.5"></circle><circle fill="rgb(30,115,181)" stroke="rgb(255,255,255)" cx="516.5073349633252" cy="312.48" r="2.5"></circle><circle fill="rgb(30,115,181)" stroke="rgb(255,255,255)" cx="519.8375611246943" cy="295.12" r="2.5"></circle><circle fill="rgb(30,115,181)" stroke="rgb(255,255,255)" cx="523.0603606356967" cy="282.1" r="2.5"></circle><circle fill="rgb(30,115,181)" stroke="rgb(255,255,255)" cx="526.390586797066" cy="282.1" r="2.5"></circle><circle fill="rgb(30,115,181)" stroke="rgb(255,255,255)" cx="529.6133863080685" cy="221.33999999999997" r="2.5"></circle><circle fill="rgb(30,115,181)" stroke="rgb(255,255,255)" cx="532.9436124694377" cy="251.71999999999997" r="2.5"></circle><circle fill="rgb(30,115,181)" stroke="rgb(255,255,255)" cx="536.2738386308068" cy="230.01999999999998" r="2.5"></circle><circle fill="rgb(30,115,181)" stroke="rgb(255,255,255)" cx="539.4966381418093" cy="273.41999999999996" r="2.5"></circle><circle fill="rgb(30,115,181)" stroke="rgb(255,255,255)" cx="542.8268643031785" cy="295.12" r="2.5"></circle><circle fill="rgb(30,115,181)" stroke="rgb(255,255,255)" cx="546.0496638141809" cy="355.88" r="2.5"></circle><circle fill="rgb(30,115,181)" stroke="rgb(255,255,255)" cx="549.3798899755501" cy="347.2" r="2.5"></circle><circle fill="rgb(30,115,181)" stroke="rgb(255,255,255)" cx="552.7101161369193" cy="360.22" r="2.5"></circle><circle fill="rgb(30,115,181)" stroke="rgb(255,255,255)" cx="555.7180623471883" cy="312.48" r="2.5"></circle><circle fill="rgb(30,115,181)" stroke="rgb(255,255,255)" cx="559.0482885085574" cy="295.12" r="2.5"></circle><circle fill="rgb(30,115,181)" stroke="rgb(255,255,255)" cx="562.2710880195599" cy="243.03999999999996" r="2.5"></circle><circle fill="rgb(30,115,181)" stroke="rgb(255,255,255)" cx="565.6013141809291" cy="286.44" r="2.5"></circle><circle fill="rgb(30,115,181)" stroke="rgb(255,255,255)" cx="568.8241136919315" cy="264.74" r="2.5"></circle><circle fill="rgb(30,115,181)" stroke="rgb(255,255,255)" cx="572.1543398533007" cy="195.29999999999998" r="2.5"></circle><circle fill="rgb(30,115,181)" stroke="rgb(255,255,255)" cx="575.4845660146699" cy="269.08" r="2.5"></circle><circle fill="rgb(30,115,181)" stroke="rgb(255,255,255)" cx="578.7073655256723" cy="295.12" r="2.5"></circle><circle fill="rgb(30,115,181)" stroke="rgb(255,255,255)" cx="582.0375916870415" cy="334.18" r="2.5"></circle><circle fill="rgb(30,115,181)" stroke="rgb(255,255,255)" cx="585.260391198044" cy="338.52" r="2.5"></circle><circle fill="rgb(30,115,181)" stroke="rgb(255,255,255)" cx="588.5906173594132" cy="377.58" r="2.5"></circle><circle fill="rgb(30,115,181)" stroke="rgb(255,255,255)" cx="591.9208435207823" cy="334.18" r="2.5"></circle><circle fill="rgb(30,115,181)" stroke="rgb(255,255,255)" cx="594.9287897310513" cy="316.82" r="2.5"></circle><circle fill="rgb(30,115,181)" stroke="rgb(255,255,255)" cx="598.2590158924205" cy="290.78" r="2.5"></circle><circle fill="rgb(30,115,181)" stroke="rgb(255,255,255)" cx="601.481815403423" cy="273.41999999999996" r="2.5"></circle><circle fill="rgb(30,115,181)" stroke="rgb(255,255,255)" cx="604.8120415647921" cy="303.79999999999995" r="2.5"></circle><circle fill="rgb(30,115,181)" stroke="rgb(255,255,255)" cx="608.0348410757946" cy="269.08" r="2.5"></circle><circle fill="rgb(30,115,181)" stroke="rgb(255,255,255)" cx="611.3650672371638" cy="230.01999999999998" r="2.5"></circle><circle fill="rgb(30,115,181)" stroke="rgb(255,255,255)" cx="614.695293398533" cy="234.36" r="2.5"></circle><circle fill="rgb(30,115,181)" stroke="rgb(255,255,255)" cx="617.9180929095354" cy="308.14" r="2.5"></circle><circle fill="rgb(30,115,181)" stroke="rgb(255,255,255)" cx="621.2483190709046" cy="360.22" r="2.5"></circle><circle fill="rgb(30,115,181)" stroke="rgb(255,255,255)" cx="624.471118581907" cy="377.58" r="2.5"></circle><circle fill="rgb(30,115,181)" stroke="rgb(255,255,255)" cx="627.8013447432762" cy="355.88" r="2.5"></circle><circle fill="rgb(30,115,181)" stroke="rgb(255,255,255)" cx="631.1315709046454" cy="347.2" r="2.5"></circle><circle fill="rgb(30,115,181)" stroke="rgb(255,255,255)" cx="634.1395171149144" cy="338.52" r="2.5"></circle><circle fill="rgb(30,115,181)" stroke="rgb(255,255,255)" cx="637.4697432762836" cy="303.79999999999995" r="2.5"></circle><circle fill="rgb(30,115,181)" stroke="rgb(255,255,255)" cx="640.692542787286" cy="329.84000000000003" r="2.5"></circle><circle fill="rgb(30,115,181)" stroke="rgb(255,255,255)" cx="644.0227689486552" cy="282.1" r="2.5"></circle><circle fill="rgb(30,115,181)" stroke="rgb(255,255,255)" cx="647.2455684596576" cy="282.1" r="2.5"></circle><circle fill="rgb(30,115,181)" stroke="rgb(255,255,255)" cx="650.5757946210268" cy="290.78" r="2.5"></circle><circle fill="rgb(30,115,181)" stroke="rgb(255,255,255)" cx="653.906020782396" cy="316.82" r="2.5"></circle><circle fill="rgb(30,115,181)" stroke="rgb(255,255,255)" cx="657.1288202933985" cy="325.5" r="2.5"></circle><circle fill="rgb(30,115,181)" stroke="rgb(255,255,255)" cx="660.4590464547676" cy="364.56" r="2.5"></circle><circle fill="rgb(30,115,181)" stroke="rgb(255,255,255)" cx="663.6818459657701" cy="381.92" r="2.5"></circle><circle fill="rgb(30,115,181)" stroke="rgb(255,255,255)" cx="667.0120721271394" cy="368.9" r="2.5"></circle><circle fill="rgb(30,115,181)" stroke="rgb(255,255,255)" cx="670.3422982885086" cy="347.2" r="2.5"></circle><circle fill="rgb(30,115,181)" stroke="rgb(255,255,255)" cx="673.4576711491443" cy="299.46" r="2.5"></circle><circle fill="rgb(30,115,181)" stroke="rgb(255,255,255)" cx="676.7878973105134" cy="303.79999999999995" r="2.5"></circle><circle fill="rgb(30,115,181)" stroke="rgb(255,255,255)" cx="680.0106968215158" cy="282.1" r="2.5"></circle><circle fill="rgb(30,115,181)" stroke="rgb(255,255,255)" cx="683.3409229828851" cy="286.44" r="2.5"></circle><circle fill="rgb(30,115,181)" stroke="rgb(255,255,255)" cx="686.5637224938876" cy="260.4" r="2.5"></circle><circle fill="rgb(30,115,181)" stroke="rgb(255,255,255)" cx="689.8939486552566" cy="269.08" r="2.5"></circle><circle fill="rgb(30,115,181)" stroke="rgb(255,255,255)" cx="693.2241748166259" cy="299.46" r="2.5"></circle><circle fill="rgb(30,115,181)" stroke="rgb(255,255,255)" cx="696.4469743276284" cy="342.86" r="2.5"></circle><circle fill="rgb(30,115,181)" stroke="rgb(255,255,255)" cx="699.7772004889974" cy="364.56" r="2.5"></circle><circle fill="rgb(30,115,181)" stroke="rgb(255,255,255)" cx="703" cy="377.58" r="2.5"></circle></g></g></g></svg>